<svg width="188" height="74" viewBox="0 0 188 74" fill="none" xmlns="http://www.w3.org/2000/svg">
<path d="M18.2369 24.3988L28.1845 24.445L11.5743 43.9239L1.62668 43.8776L18.2369 24.3988ZM25.8711 43.8776L24.992 50.1238H0.793854L1.62668 43.8776H25.8711ZM29.0636 18.1988L28.1845 24.445H4.81917L5.69827 18.1988H29.0636Z" fill="#010101"/>
<path d="M42.5258 26.4808C43.3278 26.4808 44.2532 26.5271 45.3019 26.6196C46.3815 26.7122 47.4611 26.8356 48.5407 26.9898C49.6203 27.1132 50.6073 27.252 51.5018 27.4062C52.4272 27.5604 53.1366 27.7146 53.6301 27.8689L47.4302 32.2181C46.4432 32.1872 45.5178 32.1718 44.6542 32.1718C43.7905 32.141 42.8651 32.1255 41.8781 32.1255C41.1378 32.1255 40.49 32.2026 39.9348 32.3569C39.3796 32.4803 38.9015 32.7424 38.5005 33.1434C38.1304 33.5136 37.7911 34.0842 37.4826 34.8553C37.205 35.6265 36.9737 36.6444 36.7886 37.909C36.5418 39.6364 36.3876 40.9627 36.3259 41.8881C36.2951 42.7826 36.4184 43.3841 36.696 43.6925C36.9737 44.001 37.4518 44.1552 38.1304 44.1552C38.8398 44.0935 39.5955 43.8005 40.3975 43.2761C41.1995 42.7209 41.9706 41.996 42.7109 41.1015C43.482 40.207 44.176 39.22 44.793 38.1404L46.181 40.5926C45.6566 42.6284 44.8546 44.3866 43.7751 45.8671C42.6955 47.3477 41.4 48.489 39.8885 49.291C38.3771 50.093 36.6652 50.5556 34.7528 50.679C32.6245 50.8024 31.0205 50.386 29.9409 49.4298C28.8613 48.4736 28.1981 47.0393 27.9514 45.1269C27.7355 43.1836 27.828 40.8239 28.229 38.0478C28.63 35.3643 29.2315 33.2514 30.0334 31.7091C30.8354 30.136 31.8379 28.9793 33.0409 28.239C34.2438 27.4987 35.6319 27.0206 37.205 26.8047C38.809 26.5888 40.5826 26.4808 42.5258 26.4808ZM45.3944 27.2211L53.6301 27.8689L50.4839 50.1238H44.0064V45.0343L42.9422 44.3403L45.3944 27.2211Z" fill="#010101"/>
<path d="M73.0866 26.5734C74.8448 26.5734 76.2482 27.036 77.297 27.9614C78.3766 28.8559 79.086 30.2285 79.4253 32.0793C79.7955 33.93 79.7955 36.3051 79.4253 39.2045C79.086 41.6105 78.5925 43.5846 77.9447 45.1269C77.3278 46.6383 76.5567 47.795 75.6313 48.597C74.7368 49.3989 73.6881 49.9542 72.4851 50.2626C71.313 50.6019 70.0175 50.7716 68.5986 50.7716C67.8583 50.7716 66.9946 50.7253 66.0076 50.6327C65.0514 50.5711 64.0489 50.4631 63.0002 50.3089C61.9823 50.1546 61.026 49.9542 60.1315 49.7074C59.237 49.4298 58.4813 49.1059 57.8644 48.7358L58.836 45.4507C60.0698 45.4507 61.1957 45.4661 62.2136 45.497C63.2623 45.497 64.4499 45.497 65.7762 45.497C66.7016 45.497 67.4573 45.4199 68.0434 45.2657C68.6294 45.0806 69.0921 44.7721 69.4314 44.3403C69.7707 43.9085 70.0329 43.2916 70.218 42.4896C70.4339 41.6567 70.6344 40.608 70.8195 39.3433C71.0662 37.6469 71.1896 36.3513 71.1896 35.4568C71.1896 34.5623 71.0508 33.9454 70.7732 33.6061C70.4956 33.2668 70.0483 33.0972 69.4314 33.0972C68.8762 33.0972 68.2284 33.2668 67.4882 33.6061C66.7787 33.9146 66.0538 34.3464 65.3136 34.9016C64.6041 35.4568 63.9718 36.0892 63.4166 36.7986L61.8897 33.5136C62.2599 32.9584 62.7997 32.2952 63.5091 31.524C64.2185 30.7529 65.0668 29.9818 66.0538 29.2106C67.0717 28.4395 68.1822 27.8072 69.3851 27.3137C70.5881 26.8201 71.8219 26.5734 73.0866 26.5734ZM63.6942 27.1286L63.6016 32.7733L64.4807 33.4673L62.5375 48.8746L62.0285 49.6611C62.0594 50.4323 62.0439 51.2034 61.9823 51.9745C61.9514 52.7457 61.8589 53.5785 61.7046 54.473L61.0106 58.6834H52.5898L56.9853 27.1286H63.6942Z" fill="#010101"/>
<path d="M95.7323 26.4808C96.5342 26.4808 97.4596 26.5271 98.5083 26.6196C99.5879 26.7122 100.668 26.8356 101.747 26.9898C102.827 27.1132 103.814 27.252 104.708 27.4062C105.634 27.5604 106.343 27.7146 106.837 27.8689L100.637 32.2181C99.6496 32.1872 98.7243 32.1718 97.8606 32.1718C96.9969 32.141 96.0716 32.1255 95.0845 32.1255C94.3442 32.1255 93.6965 32.2026 93.1413 32.3569C92.586 32.4803 92.1079 32.7424 91.7069 33.1434C91.3368 33.5136 90.9975 34.0842 90.689 34.8553C90.4114 35.6265 90.1801 36.6444 89.995 37.909C89.7483 39.6364 89.594 40.9627 89.5323 41.8881C89.5015 42.7826 89.6249 43.3841 89.9025 43.6925C90.1801 44.001 90.6582 44.1552 91.3368 44.1552C92.0462 44.0935 92.8019 43.8005 93.6039 43.2761C94.4059 42.7209 95.177 41.996 95.9173 41.1015C96.6885 40.207 97.3825 39.22 97.9994 38.1404L99.3874 40.5926C98.8631 42.6284 98.0611 44.3866 96.9815 45.8671C95.9019 47.3477 94.6064 48.489 93.095 49.291C91.5836 50.093 89.8717 50.5556 87.9592 50.679C85.8309 50.8024 84.2269 50.386 83.1474 49.4298C82.0678 48.4736 81.4046 47.0393 81.1578 45.1269C80.9419 43.1836 81.0344 40.8239 81.4354 38.0478C81.8364 35.3643 82.4379 33.2514 83.2399 31.7091C84.0419 30.136 85.0443 28.9793 86.2473 28.239C87.4503 27.4987 88.8383 27.0206 90.4114 26.8047C92.0154 26.5888 93.789 26.4808 95.7323 26.4808ZM98.6009 27.2211L106.837 27.8689L103.69 50.1238H97.2128V45.0343L96.1487 44.3403L98.6009 27.2211Z" fill="#010101"/>
<path d="M121.759 20.9287L118.705 42.3508C118.613 43.0602 118.674 43.5383 118.89 43.7851C119.106 44.0318 119.6 44.1552 120.371 44.1552H123.286L123.702 49.7074C123.054 49.9542 122.283 50.1392 121.389 50.2626C120.494 50.4168 119.615 50.5248 118.751 50.5865C117.888 50.679 117.178 50.7253 116.623 50.7253C114.371 50.7253 112.644 50.1392 111.441 48.9671C110.238 47.795 109.791 46.191 110.099 44.1552L113.477 20.9287H121.759ZM126.802 27.1286L126.108 32.3569H107.786L108.434 27.3599L112.875 27.1286H126.802Z" fill="#010101"/>
<path d="M173.817 26.4808C174.989 26.4808 176.269 26.5271 177.657 26.6196C179.045 26.7122 180.387 26.8356 181.682 26.9898C182.978 27.1132 184.073 27.2828 184.967 27.4987L184.273 32.4494C182.762 32.4494 181.266 32.4494 179.785 32.4494C178.305 32.4186 176.84 32.4031 175.39 32.4031C174.28 32.4031 173.4 32.4186 172.753 32.4494C172.136 32.4802 171.704 32.5574 171.457 32.6807C171.21 32.8041 171.056 33.0046 170.994 33.2822C170.933 33.6524 171.072 33.9608 171.411 34.2076C171.75 34.4544 172.398 34.7165 173.354 34.9941L178.721 36.6598C179.955 37.0299 180.973 37.5235 181.775 38.1404C182.577 38.7573 183.148 39.5284 183.487 40.4538C183.857 41.3791 183.965 42.4741 183.811 43.7388C183.564 45.7129 182.962 47.1935 182.006 48.1805C181.05 49.1367 179.755 49.7845 178.12 50.1238C176.516 50.4631 174.588 50.6327 172.336 50.6327C171.257 50.6327 170.146 50.6019 169.005 50.5402C167.864 50.5094 166.661 50.4168 165.396 50.2626C164.131 50.1392 162.728 49.9542 161.186 49.7074L161.926 44.7104C162.389 44.7413 163.052 44.7567 163.915 44.7567C164.779 44.7567 165.704 44.7567 166.692 44.7567C167.709 44.7567 168.666 44.7567 169.56 44.7567C171.226 44.7567 172.49 44.7259 173.354 44.6642C174.218 44.6025 174.819 44.4945 175.159 44.3403C175.498 44.1552 175.683 43.9085 175.714 43.6C175.775 43.3224 175.729 43.1065 175.575 42.9522C175.452 42.798 175.189 42.6438 174.788 42.4896C174.387 42.3353 173.832 42.1503 173.123 41.9344L167.941 40.2224C166.584 39.7598 165.504 39.1737 164.702 38.4643C163.931 37.7548 163.407 36.9066 163.129 35.9195C162.882 34.9325 162.836 33.8374 162.99 32.6345C163.206 31.2464 163.669 30.1052 164.378 29.2106C165.118 28.3161 166.244 27.6375 167.756 27.1748C169.267 26.7122 171.288 26.4808 173.817 26.4808Z" fill="#010101"/>
<path d="M77.3911 61.2426V60.3124H82.9339V61.2426H80.6993V67.4743H79.6222V61.2426H77.3911Z" fill="#3D4C5E"/>
<path d="M84.1587 67.4743V60.3124H85.2393V63.4248H88.8097V60.3124H89.8938V67.4743H88.8097V64.3515H85.2393V67.4743H84.1587Z" fill="#3D4C5E"/>
<path d="M91.4674 67.4743V60.3124H95.9576V61.2426H92.548V63.4248H95.7233V64.3515H92.548V66.5441H95.9996V67.4743H91.4674Z" fill="#3D4C5E"/>
<path d="M103.913 62.1938C103.876 61.8628 103.722 61.6063 103.452 61.4245C103.181 61.2403 102.841 61.1482 102.431 61.1482C102.137 61.1482 101.883 61.1948 101.668 61.2881C101.454 61.379 101.287 61.5049 101.168 61.6658C101.052 61.8243 100.993 62.005 100.993 62.2078C100.993 62.378 101.033 62.5249 101.112 62.6484C101.194 62.772 101.3 62.8757 101.43 62.9597C101.563 63.0413 101.706 63.11 101.857 63.166C102.009 63.2196 102.154 63.2639 102.294 63.2989L102.994 63.4807C103.222 63.5367 103.456 63.6124 103.697 63.708C103.937 63.8036 104.159 63.9295 104.364 64.0857C104.57 64.2419 104.735 64.4354 104.861 64.6662C104.989 64.897 105.053 65.1733 105.053 65.495C105.053 65.9007 104.948 66.2608 104.739 66.5756C104.531 66.8903 104.229 67.1386 103.833 67.3204C103.439 67.5023 102.962 67.5932 102.403 67.5932C101.866 67.5932 101.402 67.5081 101.011 67.3379C100.619 67.1677 100.313 66.9264 100.091 66.614C99.8696 66.2993 99.7472 65.9263 99.7239 65.495H100.808C100.829 65.7538 100.913 65.9694 101.06 66.1419C101.209 66.3121 101.399 66.4392 101.63 66.5231C101.863 66.6047 102.118 66.6455 102.396 66.6455C102.701 66.6455 102.973 66.5977 103.21 66.5021C103.451 66.4042 103.639 66.269 103.777 66.0965C103.914 65.9216 103.983 65.7176 103.983 65.4845C103.983 65.2724 103.923 65.0987 103.801 64.9635C103.683 64.8282 103.52 64.7163 103.315 64.6277C103.112 64.5392 102.883 64.4611 102.626 64.3934L101.78 64.1626C101.207 64.0064 100.752 63.7768 100.416 63.4737C100.083 63.1707 99.9162 62.7697 99.9162 62.2708C99.9162 61.8581 100.028 61.4979 100.252 61.1902C100.476 60.8824 100.779 60.6435 101.161 60.4733C101.544 60.3008 101.975 60.2145 102.455 60.2145C102.94 60.2145 103.368 60.2996 103.738 60.4698C104.111 60.64 104.405 60.8743 104.62 61.1727C104.834 61.4688 104.946 61.8092 104.955 62.1938H103.913Z" fill="#3D4C5E"/>
<path d="M106.345 67.4743V60.3124H107.425V63.4248H110.996V60.3124H112.08V67.4743H110.996V64.3515H107.425V67.4743H106.345Z" fill="#3D4C5E"/>
<path d="M119.875 63.8934C119.875 64.6581 119.735 65.3155 119.455 65.8657C119.175 66.4136 118.792 66.8355 118.304 67.1316C117.819 67.4254 117.268 67.5722 116.65 67.5722C116.03 67.5722 115.476 67.4254 114.989 67.1316C114.504 66.8355 114.122 66.4124 113.842 65.8622C113.562 65.312 113.423 64.6557 113.423 63.8934C113.423 63.1287 113.562 62.4724 113.842 61.9246C114.122 61.3744 114.504 60.9524 114.989 60.6586C115.476 60.3626 116.03 60.2145 116.65 60.2145C117.268 60.2145 117.819 60.3626 118.304 60.6586C118.792 60.9524 119.175 61.3744 119.455 61.9246C119.735 62.4724 119.875 63.1287 119.875 63.8934ZM118.804 63.8934C118.804 63.3105 118.71 62.8198 118.521 62.4211C118.335 62.0201 118.078 61.7171 117.752 61.5119C117.428 61.3044 117.061 61.2007 116.65 61.2007C116.238 61.2007 115.869 61.3044 115.545 61.5119C115.221 61.7171 114.965 62.0201 114.776 62.4211C114.589 62.8198 114.496 63.3105 114.496 63.8934C114.496 64.4762 114.589 64.9681 114.776 65.3691C114.965 65.7678 115.221 66.0708 115.545 66.2783C115.869 66.4835 116.238 66.5861 116.65 66.5861C117.061 66.5861 117.428 66.4835 117.752 66.2783C118.078 66.0708 118.335 65.7678 118.521 65.3691C118.71 64.9681 118.804 64.4762 118.804 63.8934Z" fill="#3D4C5E"/>
<path d="M121.222 67.4743V60.3124H125.712V61.2426H122.302V63.4248H125.478V64.3515H122.302V66.5441H125.754V67.4743H121.222Z" fill="#3D4C5E"/>
<path d="M133.668 62.1938C133.63 61.8628 133.476 61.6063 133.206 61.4245C132.936 61.2403 132.595 61.1482 132.185 61.1482C131.891 61.1482 131.637 61.1948 131.423 61.2881C131.208 61.379 131.041 61.5049 130.923 61.6658C130.806 61.8243 130.748 62.005 130.748 62.2078C130.748 62.378 130.787 62.5249 130.867 62.6484C130.948 62.772 131.054 62.8757 131.185 62.9597C131.318 63.0413 131.46 63.11 131.611 63.166C131.763 63.2196 131.909 63.2639 132.049 63.2989L132.748 63.4807C132.976 63.5367 133.211 63.6124 133.451 63.708C133.691 63.8036 133.914 63.9295 134.119 64.0857C134.324 64.2419 134.489 64.4354 134.615 64.6662C134.744 64.897 134.808 65.1733 134.808 65.495C134.808 65.9007 134.703 66.2608 134.493 66.5756C134.285 66.8903 133.984 67.1386 133.587 67.3204C133.193 67.5023 132.716 67.5932 132.157 67.5932C131.621 67.5932 131.157 67.5081 130.765 67.3379C130.373 67.1677 130.067 66.9264 129.845 66.614C129.624 66.2993 129.502 65.9263 129.478 65.495H130.562C130.583 65.7538 130.667 65.9694 130.814 66.1419C130.963 66.3121 131.153 66.4392 131.384 66.5231C131.617 66.6047 131.873 66.6455 132.15 66.6455C132.455 66.6455 132.727 66.5977 132.965 66.5021C133.205 66.4042 133.394 66.269 133.531 66.0965C133.669 65.9216 133.738 65.7176 133.738 65.4845C133.738 65.2724 133.677 65.0987 133.556 64.9635C133.437 64.8282 133.275 64.7163 133.07 64.6277C132.867 64.5392 132.637 64.4611 132.381 64.3934L131.534 64.1626C130.961 64.0064 130.506 63.7768 130.171 63.4737C129.837 63.1707 129.671 62.7697 129.671 62.2708C129.671 61.8581 129.782 61.4979 130.006 61.1902C130.23 60.8824 130.533 60.6435 130.915 60.4733C131.298 60.3008 131.729 60.2145 132.209 60.2145C132.694 60.2145 133.122 60.2996 133.493 60.4698C133.866 60.64 134.16 60.8743 134.374 61.1727C134.589 61.4688 134.7 61.8092 134.71 62.1938H133.668Z" fill="#3D4C5E"/>
<path d="M136.099 67.4743V60.3124H138.652C139.209 60.3124 139.671 60.4138 140.037 60.6167C140.403 60.8195 140.677 61.0969 140.858 61.449C141.04 61.7987 141.131 62.1927 141.131 62.631C141.131 63.0716 141.039 63.4679 140.855 63.8199C140.673 64.1696 140.398 64.4471 140.03 64.6522C139.664 64.855 139.203 64.9565 138.648 64.9565H136.893V64.0402H138.55C138.902 64.0402 139.188 63.9796 139.407 63.8584C139.626 63.7348 139.787 63.567 139.89 63.3548C139.992 63.1427 140.044 62.9014 140.044 62.631C140.044 62.3605 139.992 62.1204 139.89 61.9106C139.787 61.7007 139.625 61.5364 139.404 61.4175C139.184 61.2986 138.895 61.2391 138.536 61.2391H137.18V67.4743H136.099Z" fill="#3D4C5E"/>
<path d="M142.398 67.4743V60.3124H146.888V61.2426H143.479V63.4248H146.654V64.3515H143.479V66.5441H146.93V67.4743H142.398Z" fill="#3D4C5E"/>
<path d="M154.28 62.6414H153.189C153.147 62.4083 153.069 62.2031 152.955 62.026C152.84 61.8488 152.7 61.6984 152.535 61.5748C152.369 61.4513 152.184 61.358 151.979 61.2951C151.776 61.2321 151.56 61.2007 151.332 61.2007C150.919 61.2007 150.55 61.3044 150.223 61.5119C149.899 61.7194 149.643 62.0236 149.454 62.4246C149.268 62.8256 149.174 63.3152 149.174 63.8934C149.174 64.4762 149.268 64.9681 149.454 65.3691C149.643 65.7701 149.9 66.0732 150.227 66.2783C150.553 66.4835 150.92 66.5861 151.328 66.5861C151.555 66.5861 151.769 66.5558 151.972 66.4951C152.177 66.4322 152.362 66.3401 152.528 66.2189C152.693 66.0977 152.833 65.9496 152.948 65.7748C153.064 65.5976 153.145 65.3948 153.189 65.1663L154.28 65.1698C154.222 65.5218 154.109 65.8459 153.941 66.1419C153.775 66.4357 153.562 66.6898 153.301 66.9043C153.042 67.1165 152.746 67.2808 152.413 67.3974C152.079 67.5139 151.715 67.5722 151.321 67.5722C150.701 67.5722 150.149 67.4254 149.664 67.1316C149.179 66.8355 148.797 66.4124 148.517 65.8622C148.239 65.312 148.101 64.6557 148.101 63.8934C148.101 63.1287 148.241 62.4724 148.52 61.9246C148.8 61.3744 149.182 60.9524 149.667 60.6586C150.152 60.3626 150.704 60.2145 151.321 60.2145C151.701 60.2145 152.056 60.2693 152.385 60.3789C152.716 60.4861 153.013 60.6446 153.276 60.8545C153.54 61.062 153.758 61.3161 153.93 61.6168C154.103 61.9152 154.219 62.2568 154.28 62.6414Z" fill="#3D4C5E"/>
<path d="M156.654 60.3124V67.4743H155.573V60.3124H156.654Z" fill="#3D4C5E"/>
<path d="M158.832 67.4743H157.685L160.262 60.3124H161.511L164.088 67.4743H162.941L160.916 61.6133H160.86L158.832 67.4743ZM159.025 64.6697H162.745V65.5789H159.025V64.6697Z" fill="#3D4C5E"/>
<path d="M165.122 67.4743V60.3124H166.203V66.5441H169.448V67.4743H165.122Z" fill="#3D4C5E"/>
<path d="M171.761 60.3124V67.4743H170.681V60.3124H171.761Z" fill="#3D4C5E"/>
<path d="M177.241 62.1938C177.204 61.8628 177.05 61.6063 176.78 61.4245C176.509 61.2403 176.169 61.1482 175.759 61.1482C175.465 61.1482 175.211 61.1948 174.996 61.2881C174.782 61.379 174.615 61.5049 174.496 61.6658C174.38 61.8243 174.321 62.005 174.321 62.2078C174.321 62.378 174.361 62.5249 174.44 62.6484C174.522 62.772 174.628 62.8757 174.758 62.9597C174.891 63.0413 175.034 63.11 175.185 63.166C175.337 63.2196 175.482 63.2639 175.622 63.2989L176.322 63.4807C176.55 63.5367 176.784 63.6124 177.025 63.708C177.265 63.8036 177.487 63.9295 177.692 64.0857C177.898 64.2419 178.063 64.4354 178.189 64.6662C178.317 64.897 178.381 65.1733 178.381 65.495C178.381 65.9007 178.276 66.2608 178.067 66.5756C177.859 66.8903 177.557 67.1386 177.161 67.3204C176.767 67.5023 176.29 67.5932 175.731 67.5932C175.194 67.5932 174.73 67.5081 174.339 67.3379C173.947 67.1677 173.641 66.9264 173.419 66.614C173.198 66.2993 173.075 65.9263 173.052 65.495H174.136C174.157 65.7538 174.241 65.9694 174.388 66.1419C174.537 66.3121 174.727 66.4392 174.958 66.5231C175.191 66.6047 175.446 66.6455 175.724 66.6455C176.029 66.6455 176.301 66.5977 176.538 66.5021C176.779 66.4042 176.967 66.269 177.105 66.0965C177.242 65.9216 177.311 65.7176 177.311 65.4845C177.311 65.2724 177.251 65.0987 177.129 64.9635C177.011 64.8282 176.848 64.7163 176.643 64.6277C176.441 64.5392 176.211 64.4611 175.954 64.3934L175.108 64.1626C174.535 64.0064 174.08 63.7768 173.744 63.4737C173.411 63.1707 173.244 62.7697 173.244 62.2708C173.244 61.8581 173.356 61.4979 173.58 61.1902C173.804 60.8824 174.107 60.6435 174.489 60.4733C174.872 60.3008 175.303 60.2145 175.783 60.2145C176.268 60.2145 176.696 60.2996 177.066 60.4698C177.439 60.64 177.733 60.8743 177.948 61.1727C178.162 61.4688 178.274 61.8092 178.283 62.1938H177.241Z" fill="#3D4C5E"/>
<path d="M179.319 61.2426V60.3124H184.862V61.2426H182.628V67.4743H181.551V61.2426H179.319Z" fill="#3D4C5E"/>
<path fill-rule="evenodd" clip-rule="evenodd" d="M153.608 50.8959C158.085 47.8089 161.01 42.696 161.01 36.9105C161.01 31.1465 158.106 26.0494 153.659 22.9594L150.151 27.8858C150.151 25.4556 149.888 23.0758 149.387 20.7933C148.325 15.9599 146.2 11.5162 143.264 7.71143L129.262 27.3824C127.397 30.1039 126.309 33.3816 126.309 36.9105C126.309 42.714 129.253 47.8416 133.753 50.9252C136.562 52.8498 139.977 53.9795 143.66 53.9795C147.361 53.9795 150.792 52.8393 153.608 50.8959Z" fill="#010101"/>
<path d="M135.334 31.901C135.13 32.3132 135.237 32.879 135.635 33.2933C136.125 33.8031 136.871 33.8913 137.3 33.4906C137.73 33.0899 137.681 32.352 137.191 31.8421C136.701 31.3323 135.955 31.2441 135.526 31.6448C135.447 31.7182 135.382 31.805 135.334 31.901ZM137.157 29.5344C136.972 29.9194 136.987 30.4295 137.237 30.8863C137.616 31.5826 138.397 31.8924 138.98 31.5788C139.563 31.2651 139.728 30.4467 139.348 29.7505C138.968 29.0543 138.188 28.7445 137.605 29.0582C137.404 29.1659 137.253 29.3327 137.157 29.5344ZM139.618 27.7787C139.439 28.1394 139.406 28.6034 139.562 29.0559C139.84 29.8604 140.609 30.3236 141.282 30.0912C141.954 29.8588 142.274 29.0183 141.997 28.2138C141.719 27.4093 140.95 26.9461 140.278 27.1785C139.983 27.2801 139.757 27.4982 139.618 27.7787ZM138.122 33.7853C137.733 34.5707 137.619 35.4537 137.904 36.4003C138.811 39.4219 140.592 42.7729 144.72 45.5005C149.542 48.6864 151.649 41.8979 148.563 41.2619C144.621 40.4495 144.138 37.7914 145.981 35.472C146.801 34.441 146.927 33.0579 145.995 31.8026C144.875 30.293 142.086 30.3428 139.991 31.7603C139.174 32.3127 138.51 32.9998 138.122 33.7853ZM142.843 26.6456C142.667 27.0151 142.579 27.451 142.609 27.9108C142.689 29.1371 143.581 30.069 144.602 29.9912C145.624 29.9134 146.386 28.8557 146.306 27.6295C146.226 26.4033 145.333 25.4725 144.312 25.5502C143.674 25.5988 143.137 26.0297 142.843 26.6456Z" fill="#E2E2E2"/>
</svg>
