<svg width="94" height="19" viewBox="0 0 94 19" fill="none" xmlns="http://www.w3.org/2000/svg">
<g clip-path="url(#clip0_9089_18976)">
<path d="M92.5811 3.89168L86.9128 0.639387C85.0212 -0.446069 82.663 0.919504 82.663 3.101V3.46825C82.663 3.66938 82.7705 3.85504 82.9447 3.9552L84.2688 4.71494C84.636 4.92584 85.0945 4.66038 85.0945 4.23694V3.36646C85.0945 2.9357 85.5602 2.66535 85.934 2.88033L91.1439 5.86961C91.5192 6.08539 91.5192 6.6269 91.1439 6.84269L85.934 9.83197C85.5602 10.0461 85.0936 9.7766 85.0945 9.34583V8.91344C85.0945 6.73195 82.7363 5.36637 80.8447 6.45183L75.1763 9.70412C73.2758 10.7945 73.2758 13.5362 75.1763 14.6274L80.8447 17.8797C82.7363 18.9651 85.0945 17.5995 85.0945 15.418V15.0492C85.0945 14.848 84.987 14.6624 84.8127 14.5622L83.4887 13.8025C83.1214 13.5916 82.663 13.857 82.663 14.2805V15.1518C82.663 15.5825 82.1972 15.8529 81.8234 15.6379L76.6136 12.6486C76.2382 12.4328 76.2382 11.8913 76.6136 11.6755L81.8234 8.68625C82.1972 8.47209 82.663 8.74163 82.663 9.17239V9.60478C82.663 11.7863 85.0212 13.1518 86.9128 12.0664L92.5811 8.8141C94.4817 7.72376 94.4817 4.98202 92.5811 3.89168Z" fill="white"/>
<path d="M74.099 4.43075L67.4975 18.0547H64.7582L67.2247 12.9637L63.3471 4.43075H66.1564L68.6473 10.1447L71.3695 4.43075H74.099Z" fill="white"/>
<path d="M8.15007 9.26766C8.15007 7.64233 6.97016 6.50069 5.51827 6.50069C4.06638 6.50069 2.88647 7.66187 2.88647 9.26766C2.88647 10.8547 4.06638 12.0346 5.51827 12.0346C6.97016 12.0346 8.15007 10.893 8.15007 9.26766ZM8.16961 14.1054V12.8473C7.45385 13.7178 6.38956 14.2601 5.11275 14.2601C2.4614 14.2601 0.44928 12.1315 0.44928 9.26766C0.44928 6.42333 2.53876 4.25649 5.17056 4.25649C6.40911 4.25649 7.45385 4.79881 8.16961 5.64975V4.43075H10.5498V14.1054H8.16961Z" fill="white"/>
<path d="M22.1103 11.9573C21.2781 11.9573 21.0461 11.6478 21.0461 10.8352V6.53977H22.5745V4.43075H21.0461V2.0701H18.6081V4.43075H15.4673V3.46743C15.4673 2.65477 15.7768 2.34534 16.6285 2.34534H17.1643V0.468385H15.9901C13.978 0.468385 13.0293 1.12634 13.0293 3.13846V4.42993H11.6752V6.53896H13.0293V14.1046H15.4673V6.53977H18.6081V11.2806C18.6081 13.2545 19.3629 14.1054 21.336 14.1054H22.594V11.9573H22.1103Z" fill="white"/>
<path d="M30.8559 8.39718C30.6816 7.13991 29.6564 6.38506 28.457 6.38506C27.2575 6.38506 26.2706 7.12036 26.019 8.39718H30.8559ZM25.9994 9.90607C26.1737 11.3376 27.1989 12.1503 28.4952 12.1503C29.5204 12.1503 30.3144 11.6666 30.7785 10.8922H33.2743C32.6937 12.9434 30.8559 14.2593 28.4374 14.2593C25.5157 14.2593 23.4645 12.2081 23.4645 9.28639C23.4645 6.3647 25.6322 4.25567 28.4952 4.25567C31.3787 4.25567 33.4681 6.38424 33.4681 9.28639C33.4681 9.49892 33.4486 9.71227 33.4095 9.90526H25.9994V9.90607Z" fill="white"/>
<path d="M48.9731 9.26766C48.9731 7.70014 47.7924 6.50069 46.3413 6.50069C44.8903 6.50069 43.7095 7.66187 43.7095 9.26766C43.7095 10.8539 44.8903 12.0346 46.3413 12.0346C47.7932 12.0346 48.9731 10.8352 48.9731 9.26766ZM41.3114 18.0547V4.43075H43.6916V5.68802C44.4074 4.79799 45.4717 4.25649 46.7485 4.25649C49.3607 4.25649 51.4119 6.4046 51.4119 9.24893C51.4119 12.0933 49.3225 14.2601 46.6907 14.2601C45.4717 14.2601 44.4652 13.7764 43.769 12.9637V18.0547H41.3114Z" fill="white"/>
<path d="M59.9873 9.26766C59.9873 7.64233 58.8074 6.50069 57.3555 6.50069C55.9044 6.50069 54.7237 7.66187 54.7237 9.26766C54.7237 10.8547 55.9044 12.0346 57.3555 12.0346C58.8074 12.0346 59.9873 10.893 59.9873 9.26766ZM60.0068 14.1054V12.8473C59.2911 13.7178 58.2268 14.2601 56.95 14.2601C54.2994 14.2601 52.2865 12.1315 52.2865 9.26766C52.2865 6.42333 54.376 4.25649 57.0078 4.25649C58.2463 4.25649 59.2911 4.79881 60.0068 5.64975V4.43075H62.387V14.1054H60.0068Z" fill="white"/>
<path d="M37.0225 5.37859C37.0225 5.37859 37.6284 4.25649 39.112 4.25649C39.7464 4.25649 40.1568 4.47472 40.1568 4.47472V6.94285C40.1568 6.94285 39.261 6.38994 38.4394 6.5015C37.6178 6.61306 37.0975 7.36791 37.0999 8.37845V14.1062H34.6424V4.43075H37.0225V5.37859Z" fill="white"/>
</g>
<defs>
<clipPath id="clip0_9089_18976">
<rect width="93.5568" height="18" fill="white" transform="translate(0.44928 0.257812)"/>
</clipPath>
</defs>
</svg>
