<svg width="17" height="16" viewBox="0 0 17 16" fill="none" xmlns="http://www.w3.org/2000/svg">
<path fill-rule="evenodd" clip-rule="evenodd" d="M2.73337 8.00005C2.73337 7.66868 3.002 7.40005 3.33337 7.40005L11.8437 7.40005L8.5175 4.23255C8.27864 4.00287 8.27119 3.62305 8.50087 3.38418C8.73054 3.14532 9.11037 3.13787 9.34923 3.36755L13.7492 7.56755C13.8669 7.68067 13.9334 7.83684 13.9334 8.00005C13.9334 8.16326 13.8669 8.31943 13.7492 8.43255L9.34923 12.6325C9.11037 12.8622 8.73055 12.8548 8.50087 12.6159C8.27119 12.3771 8.27864 11.9972 8.5175 11.7675L11.8437 8.60005L3.33337 8.60005C3.002 8.60005 2.73337 8.33142 2.73337 8.00005Z" fill="#010101"/>
</svg>
