<svg width="17" height="16" viewBox="0 0 17 16" fill="none" xmlns="http://www.w3.org/2000/svg">
<path d="M8.49983 9.33331H9.1665C9.89983 9.33331 10.4998 8.73331 10.4998 7.99998V1.33331H4.49983C3.49983 1.33331 2.62651 1.88664 2.17317 2.69997" stroke="white" stroke-linecap="round" stroke-linejoin="round"/>
<path d="M1.83333 11.3333C1.83333 12.44 2.72666 13.3333 3.83333 13.3333H4.49999C4.49999 12.6 5.09999 12 5.83333 12C6.56666 12 7.16666 12.6 7.16666 13.3333H9.83333C9.83333 12.6 10.4333 12 11.1667 12C11.9 12 12.5 12.6 12.5 13.3333H13.1667C14.2733 13.3333 15.1667 12.44 15.1667 11.3333V9.33331H13.1667C12.8 9.33331 12.5 9.03331 12.5 8.66665V6.66665C12.5 6.29998 12.8 5.99998 13.1667 5.99998H14.0266L12.8867 4.00665C12.6467 3.59332 12.2067 3.33331 11.7267 3.33331H10.5V7.99998C10.5 8.73331 9.9 9.33331 9.16666 9.33331H8.5" stroke="white" stroke-linecap="round" stroke-linejoin="round"/>
<path d="M5.83333 14.6667C6.56971 14.6667 7.16667 14.0697 7.16667 13.3333C7.16667 12.597 6.56971 12 5.83333 12C5.09695 12 4.5 12.597 4.5 13.3333C4.5 14.0697 5.09695 14.6667 5.83333 14.6667Z" stroke="white" stroke-linecap="round" stroke-linejoin="round"/>
<path d="M11.1667 14.6667C11.903 14.6667 12.5 14.0697 12.5 13.3333C12.5 12.597 11.903 12 11.1667 12C10.4303 12 9.83333 12.597 9.83333 13.3333C9.83333 14.0697 10.4303 14.6667 11.1667 14.6667Z" stroke="white" stroke-linecap="round" stroke-linejoin="round"/>
<path d="M15.1667 8V9.33333H13.1667C12.8 9.33333 12.5 9.03333 12.5 8.66667V6.66667C12.5 6.3 12.8 6 13.1667 6H14.0267L15.1667 8Z" stroke="white" stroke-linecap="round" stroke-linejoin="round"/>
<path d="M1.83333 5.33331H5.83333" stroke="white" stroke-linecap="round" stroke-linejoin="round"/>
<path d="M1.83333 7.33331H4.49999" stroke="white" stroke-linecap="round" stroke-linejoin="round"/>
<path d="M1.83333 9.33331H3.16666" stroke="white" stroke-linecap="round" stroke-linejoin="round"/>
</svg>
