<svg width="32" height="33" viewBox="0 0 32 33" fill="none" xmlns="http://www.w3.org/2000/svg">
<path d="M16 0.257812C7.16352 0.257812 0 7.42133 0 16.2578C0 23.7612 5.16608 30.0575 12.135 31.7868V21.1474H8.83584V16.2578H12.135V14.1509C12.135 8.70517 14.5997 6.18101 19.9462 6.18101C20.96 6.18101 22.7091 6.38005 23.4246 6.57845V11.0105C23.047 10.9708 22.391 10.9509 21.5763 10.9509C18.953 10.9509 17.9392 11.9449 17.9392 14.5285V16.2578H23.1654L22.2675 21.1474H17.9392V32.1407C25.8618 31.1839 32.0006 24.4383 32.0006 16.2578C32 7.42133 24.8365 0.257812 16 0.257812Z" fill="#010101"/>
</svg>
