<svg width="32" height="33" viewBox="0 0 32 33" fill="none" xmlns="http://www.w3.org/2000/svg">
<g clip-path="url(#clip0_9089_18866)">
<path d="M16 3.13906C20.275 3.13906 20.7813 3.15781 22.4625 3.23281C24.025 3.30156 24.8688 3.56406 25.4313 3.78281C26.175 4.07031 26.7125 4.42031 27.2688 4.97656C27.8313 5.53906 28.175 6.07031 28.4625 6.81406C28.6813 7.37656 28.9438 8.22656 29.0125 9.78281C29.0875 11.4703 29.1063 11.9766 29.1063 16.2453C29.1063 20.5203 29.0875 21.0266 29.0125 22.7078C28.9438 24.2703 28.6813 25.1141 28.4625 25.6766C28.175 26.4203 27.825 26.9578 27.2688 27.5141C26.7063 28.0766 26.175 28.4203 25.4313 28.7078C24.8688 28.9266 24.0188 29.1891 22.4625 29.2578C20.775 29.3328 20.2688 29.3516 16 29.3516C11.725 29.3516 11.2188 29.3328 9.5375 29.2578C7.975 29.1891 7.13125 28.9266 6.56875 28.7078C5.825 28.4203 5.2875 28.0703 4.73125 27.5141C4.16875 26.9516 3.825 26.4203 3.5375 25.6766C3.31875 25.1141 3.05625 24.2641 2.9875 22.7078C2.9125 21.0203 2.89375 20.5141 2.89375 16.2453C2.89375 11.9703 2.9125 11.4641 2.9875 9.78281C3.05625 8.22031 3.31875 7.37656 3.5375 6.81406C3.825 6.07031 4.175 5.53281 4.73125 4.97656C5.29375 4.41406 5.825 4.07031 6.56875 3.78281C7.13125 3.56406 7.98125 3.30156 9.5375 3.23281C11.2188 3.15781 11.725 3.13906 16 3.13906ZM16 0.257812C11.6563 0.257812 11.1125 0.276562 9.40625 0.351562C7.70625 0.426563 6.5375 0.701562 5.525 1.09531C4.46875 1.50781 3.575 2.05156 2.6875 2.94531C1.79375 3.83281 1.25 4.72656 0.8375 5.77656C0.44375 6.79531 0.16875 7.95781 0.09375 9.65781C0.01875 11.3703 0 11.9141 0 16.2578C0 20.6016 0.01875 21.1453 0.09375 22.8516C0.16875 24.5516 0.44375 25.7203 0.8375 26.7328C1.25 27.7891 1.79375 28.6828 2.6875 29.5703C3.575 30.4578 4.46875 31.0078 5.51875 31.4141C6.5375 31.8078 7.7 32.0828 9.4 32.1578C11.1063 32.2328 11.65 32.2516 15.9938 32.2516C20.3375 32.2516 20.8813 32.2328 22.5875 32.1578C24.2875 32.0828 25.4563 31.8078 26.4688 31.4141C27.5188 31.0078 28.4125 30.4578 29.3 29.5703C30.1875 28.6828 30.7375 27.7891 31.1438 26.7391C31.5375 25.7203 31.8125 24.5578 31.8875 22.8578C31.9625 21.1516 31.9813 20.6078 31.9813 16.2641C31.9813 11.9203 31.9625 11.3766 31.8875 9.67031C31.8125 7.97031 31.5375 6.80156 31.1438 5.78906C30.75 4.72656 30.2063 3.83281 29.3125 2.94531C28.425 2.05781 27.5313 1.50781 26.4813 1.10156C25.4625 0.707812 24.3 0.432813 22.6 0.357813C20.8875 0.276563 20.3438 0.257812 16 0.257812Z" fill="#010101"/>
<path d="M16 8.03906C11.4625 8.03906 7.78125 11.7203 7.78125 16.2578C7.78125 20.7953 11.4625 24.4766 16 24.4766C20.5375 24.4766 24.2188 20.7953 24.2188 16.2578C24.2188 11.7203 20.5375 8.03906 16 8.03906ZM16 21.5891C13.0563 21.5891 10.6687 19.2016 10.6687 16.2578C10.6687 13.3141 13.0563 10.9266 16 10.9266C18.9438 10.9266 21.3312 13.3141 21.3312 16.2578C21.3312 19.2016 18.9438 21.5891 16 21.5891Z" fill="#010101"/>
<path d="M26.4625 7.71416C26.4625 8.77666 25.6 9.63292 24.5438 9.63292C23.4813 9.63292 22.625 8.77041 22.625 7.71416C22.625 6.65166 23.4875 5.79541 24.5438 5.79541C25.6 5.79541 26.4625 6.65791 26.4625 7.71416Z" fill="#010101"/>
</g>
<defs>
<clipPath id="clip0_9089_18866">
<rect width="32" height="32" fill="white" transform="translate(0 0.257812)"/>
</clipPath>
</defs>
</svg>
