<svg width="30" height="19" viewBox="0 0 30 19" fill="none" xmlns="http://www.w3.org/2000/svg">
<path d="M14.4408 16.5728C14.5107 16.6328 14.5857 16.6928 14.6581 16.7528C13.232 17.7028 11.5212 18.2578 9.68057 18.2578C4.71554 18.2578 0.689575 14.2278 0.689575 9.25781C0.689575 4.28781 4.71554 0.257812 9.68057 0.257812C11.5212 0.257812 13.232 0.812813 14.6581 1.76281C14.5857 1.82281 14.5107 1.88031 14.4408 1.94281C12.3229 3.78781 11.1066 6.45281 11.1066 9.25781C11.1066 12.0628 12.3229 14.7278 14.4408 16.5728ZM20.7944 0.257812C18.9538 0.257812 17.243 0.812813 15.8169 1.76281C15.8893 1.82281 15.9643 1.88031 16.0342 1.94281C18.1521 3.78781 19.3659 6.45281 19.3659 9.25781C19.3659 12.0628 18.1521 14.7278 16.0342 16.5728C15.9643 16.6328 15.8893 16.6928 15.8169 16.7528C17.243 17.7028 18.9538 18.2578 20.7944 18.2578C25.7595 18.2578 29.7854 14.2278 29.7854 9.25781C29.7854 4.28781 25.7595 0.257812 20.7944 0.257812ZM15.2375 2.18531C15.1226 2.27781 15.0077 2.37031 14.8978 2.46781C13.0022 4.11781 11.8034 6.54781 11.8034 9.25781C11.8034 11.9678 13.0022 14.3978 14.8978 16.0478C15.0077 16.1453 15.1226 16.2378 15.2375 16.3303C15.3524 16.2378 15.4673 16.1453 15.5772 16.0478C17.4728 14.3978 18.6716 11.9678 18.6716 9.25781C18.6716 6.54781 17.4728 4.11781 15.5772 2.46781C15.4673 2.37031 15.3524 2.27781 15.2375 2.18531Z" fill="white"/>
</svg>
