<svg width="24" height="25" viewBox="0 0 24 25" fill="none" xmlns="http://www.w3.org/2000/svg">
<path fill-rule="evenodd" clip-rule="evenodd" d="M1.5 5.12885C1.5 3.47199 2.84315 2.12885 4.5 2.12885H5.87163C6.732 2.12885 7.48197 2.7144 7.69064 3.54909L8.79644 7.97228C8.97941 8.70415 8.70594 9.47439 8.10242 9.92703L6.8088 10.8972C6.67447 10.998 6.64527 11.1455 6.683 11.2485C7.81851 14.3483 10.2805 16.8103 13.3803 17.9458C13.4833 17.9836 13.6309 17.9544 13.7316 17.82L14.7018 16.5264C15.1545 15.9229 15.9247 15.6494 16.6566 15.8324L21.0798 16.9382C21.9144 17.1469 22.5 17.8968 22.5 18.7572V20.1288C22.5 21.7857 21.1569 23.1288 19.5 23.1288H17.25C8.55151 23.1288 1.5 16.0773 1.5 7.37885V5.12885Z" stroke="#010101" stroke-width="1.5"/>
</svg>
