<svg width="57" height="19" viewBox="0 0 57 19" fill="none" xmlns="http://www.w3.org/2000/svg">
<g clip-path="url(#clip0_9089_18974)">
<path d="M21.9202 0.575965L14.6326 17.9855H9.87802L6.29178 4.0919C6.07405 3.23614 5.88474 2.92263 5.22257 2.5621C4.14148 1.97485 2.35619 1.42389 0.785431 1.08193L0.892119 0.575965H8.54557C9.52113 0.575965 10.3981 1.2262 10.6196 2.35106L12.5136 12.4251L17.1946 0.575675L21.9202 0.575965ZM40.5495 12.3015C40.5687 7.70653 34.2039 7.4534 34.2476 5.40079C34.2613 4.7761 34.8553 4.11193 36.1556 3.9424C36.8001 3.85793 38.5758 3.79349 40.5898 4.72153L41.3798 1.02968C40.2976 0.636344 38.9051 0.257812 37.1726 0.257812C32.7268 0.257812 29.598 2.62422 29.5716 6.01272C29.5429 8.51904 31.8048 9.91763 33.5089 10.7505C35.2621 11.6033 35.8503 12.1514 35.8436 12.9142C35.8312 14.0821 34.4454 14.5976 33.1503 14.6179C30.8896 14.6528 29.5777 14.0054 28.532 13.5186L27.7167 17.3327C28.7677 17.8154 30.7075 18.2366 32.7186 18.2578C37.444 18.2578 40.535 15.9207 40.5495 12.3015ZM52.2893 17.9855H56.4493L52.8181 0.575965H48.9785C48.1151 0.575965 47.3869 1.07932 47.0645 1.85322L40.315 17.9855H45.038L45.9756 15.3852H51.7463L52.2893 17.9855ZM47.2706 11.817L49.638 5.28033L51.0006 11.817H47.2706ZM28.3467 0.575965L24.6274 17.9855H20.1297L23.8504 0.575965H28.3467Z" fill="white"/>
</g>
<defs>
<clipPath id="clip0_9089_18974">
<rect width="55.6639" height="18" fill="white" transform="translate(0.785431 0.257812)"/>
</clipPath>
</defs>
</svg>
