<svg width="32" height="23" viewBox="0 0 32 23" fill="none" xmlns="http://www.w3.org/2000/svg">
<path d="M31.6812 4.85771C31.6812 4.85771 31.3688 2.65146 30.4062 1.68271C29.1875 0.407715 27.825 0.401465 27.2 0.326465C22.725 0.00146466 16.0063 0.00146484 16.0063 0.00146484H15.9937C15.9937 0.00146484 9.275 0.00146466 4.8 0.326465C4.175 0.401465 2.8125 0.407715 1.59375 1.68271C0.63125 2.65146 0.325 4.85771 0.325 4.85771C0.325 4.85771 0 7.45146 0 10.039V12.464C0 15.0515 0.31875 17.6452 0.31875 17.6452C0.31875 17.6452 0.63125 19.8515 1.5875 20.8202C2.80625 22.0952 4.40625 22.0515 5.11875 22.189C7.68125 22.4327 16 22.5077 16 22.5077C16 22.5077 22.725 22.4952 27.2 22.1765C27.825 22.1015 29.1875 22.0952 30.4062 20.8202C31.3688 19.8515 31.6812 17.6452 31.6812 17.6452C31.6812 17.6452 32 15.0577 32 12.464V10.039C32 7.45146 31.6812 4.85771 31.6812 4.85771ZM12.6938 15.4077V6.41396L21.3375 10.9265L12.6938 15.4077Z" fill="#010101"/>
</svg>
